<?xml version="1.0" encoding="UTF-8"?>
<svg version="1.1" xmlns="http://www.w3.org/2000/svg" width="910" height="201">
<path d="M0 0 C3.93736123 -0.08696177 7.87447628 -0.14037835 11.8125 -0.1875 C13.49182617 -0.22520508 13.49182617 -0.22520508 15.20507812 -0.26367188 C16.27822266 -0.27333984 17.35136719 -0.28300781 18.45703125 -0.29296875 C19.9416687 -0.31653442 19.9416687 -0.31653442 21.45629883 -0.34057617 C24.51770914 0.06931608 25.09136191 0.63921118 27 3 C27.87207031 5.21617126 27.87207031 5.21617126 28.578125 7.83178711 C28.84850586 8.81388657 29.11888672 9.79598602 29.39746094 10.80784607 C29.67879883 11.8702803 29.96013672 12.93271454 30.25 14.02734375 C30.69907715 15.6762838 30.69907715 15.6762838 31.15722656 17.35853577 C32.11431696 20.88236435 33.05717193 24.40983181 34 27.9375 C34.63451529 30.27954127 35.26992204 32.62134121 35.90625 34.96289062 C38.70256916 45.28547983 41.43651911 55.61681984 44 66 C44.35715088 64.80737549 44.71430176 63.61475098 45.08227539 62.38598633 C46.44149768 57.85034038 47.80502087 53.31599591 49.16967773 48.78198242 C49.75348652 46.84026347 50.33621391 44.89821897 50.91772461 42.95581055 C54.09890011 32.33261236 57.35033875 21.73590912 60.80859375 11.19921875 C61.09879898 10.30266068 61.38900421 9.4061026 61.68800354 8.4823761 C62.09852211 7.2471949 62.09852211 7.2471949 62.51733398 5.98706055 C62.75596664 5.26294479 62.9945993 4.53882904 63.24046326 3.79277039 C64 2 64 2 66 0 C69.12546156 -0.44626783 72.2837984 -0.32410302 75.4375 -0.3125 C76.30955078 -0.32861328 77.18160156 -0.34472656 78.08007812 -0.36132812 C79.33788086 -0.36229492 79.33788086 -0.36229492 80.62109375 -0.36328125 C81.3886499 -0.36626221 82.15620605 -0.36924316 82.94702148 -0.37231445 C85.56866061 0.10312849 86.38963006 0.90610017 88 3 C89.0962483 5.89177476 90.04587091 8.73186894 90.9375 11.6875 C91.22181885 12.60418457 91.5061377 13.52086914 91.79907227 14.46533203 C92.88003786 17.97271153 93.94123239 21.48587748 95 25 C95.49867869 26.65153575 95.99737791 28.30306531 96.49609375 29.95458984 C100.01887958 41.62998452 103.5162021 53.31291854 107 65 C111.18846131 52.01805247 114.81600505 38.91247339 118.34863281 25.73901367 C119.05354096 23.11516241 119.76470933 20.49306793 120.4765625 17.87109375 C120.68600494 17.08246445 120.89544739 16.29383514 121.11123657 15.48130798 C124.32658099 3.67341901 124.32658099 3.67341901 128 0 C130.33837891 -0.22705078 130.33837891 -0.22705078 133.2265625 -0.1953125 C134.7734375 -0.18564453 134.7734375 -0.18564453 136.3515625 -0.17578125 C137.97191406 -0.15064453 137.97191406 -0.15064453 139.625 -0.125 C140.71296875 -0.11597656 141.8009375 -0.10695312 142.921875 -0.09765625 C145.61480152 -0.07403409 148.30729255 -0.04109556 151 0 C142.9428819 26.296684 134.81556121 52.56944435 126.31103516 78.7253418 C124.12480706 85.46056784 121.99264639 92.20479128 120 99 C116.58362047 99.11632513 113.16775103 99.18728897 109.75 99.25 C108.78191406 99.28351563 107.81382812 99.31703125 106.81640625 99.3515625 C99.7550166 99.44896098 99.7550166 99.44896098 96.5234375 97.52734375 C94.36250025 93.94240425 93.11624163 90.29870693 91.875 86.3125 C91.58786133 85.4241748 91.30072266 84.53584961 91.00488281 83.62060547 C89.08109642 77.60701406 87.25528438 71.56347776 85.4296875 65.51953125 C85.20832123 64.78694595 84.98695496 64.05436066 84.75888062 63.29957581 C83.65191433 59.6310639 82.55201571 55.96066083 81.46435547 52.28637695 C81.25730988 51.5924736 81.05026428 50.89857025 80.83694458 50.18363953 C80.27100374 48.28682769 79.70909239 46.38881493 79.14746094 44.49072266 C77.95724913 40.86994641 76.55040209 37.47866599 75 34 C74.23693254 36.37106659 73.47497219 38.74248196 72.71411133 41.11425781 C72.01907515 43.27953103 71.32224493 45.44422905 70.6237793 47.60839844 C68.66914299 53.68948918 66.75379741 59.77804469 64.91307068 65.89445496 C63.95807919 69.06493573 62.99156489 72.23186235 62.02481079 75.39877319 C61.55181202 76.96006835 61.084455 78.52308437 60.62289429 80.08779907 C59.96735858 82.30794265 59.29231105 84.52132243 58.61328125 86.734375 C58.42383942 87.39489365 58.23439758 88.05541229 58.03921509 88.73594666 C56.61450251 93.28578875 54.74812698 96.05271635 51 99 C48.59643555 99.56762695 48.59643555 99.56762695 46.13671875 99.48828125 C44.80737305 99.46411133 44.80737305 99.46411133 43.45117188 99.43945312 C42.53916016 99.39755859 41.62714844 99.35566406 40.6875 99.3125 C39.75615234 99.28994141 38.82480469 99.26738281 37.86523438 99.24414062 C35.5751604 99.18542078 33.28842125 99.10336858 31 99 C26.25467616 85.01862695 21.71213722 70.9867553 17.36425781 56.87670898 C14.89296688 48.86097787 12.37739625 40.86126656 9.8125 32.875 C9.48701172 31.86050781 9.16152344 30.84601563 8.82617188 29.80078125 C7.57541699 25.903906 6.32364187 22.00735874 5.07177734 18.11083984 C4.21159438 15.42898361 3.35526833 12.74592691 2.5 10.0625 C2.24452393 9.2689209 1.98904785 8.4753418 1.72583008 7.65771484 C0 2.22847787 0 2.22847787 0 0 Z " fill="#FFFFFF" transform="translate(434,48)"/>
<path d="M0 0 C0.66 0 1.32 0 2 0 C-5.01803699 27.80479418 -22.49061424 53.66481445 -38.38330078 77.06640625 C-41.97195486 82.37519258 -45.36557574 87.78608803 -48.72241211 93.24414062 C-59.87398237 111.36596184 -59.87398237 111.36596184 -67 119 C-67.69996094 119.77859375 -68.39992187 120.5571875 -69.12109375 121.359375 C-78.61741538 131.44815877 -89.93075767 137.71024376 -103 142 C-103.64001953 142.21172852 -104.28003906 142.42345703 -104.93945312 142.64160156 C-125.28938399 149.06843158 -147.10081595 147.99507937 -166.0690918 138.31958008 C-179.8396865 130.95468103 -193.76568277 119.48966646 -202 106 C-202 105.01 -202 104.02 -202 103 C-201.34 103 -200.68 103 -200 103 C-198.5546875 104.72265625 -198.5546875 104.72265625 -196.875 107.0625 C-193.7964028 111.1716171 -190.49932003 114.38289873 -186.50390625 117.58984375 C-186.00761719 118.05519531 -185.51132813 118.52054687 -185 119 C-185 119.66 -185 120.32 -185 121 C-184.44441406 121.26039063 -183.88882813 121.52078125 -183.31640625 121.7890625 C-180.71816128 123.14733559 -178.36792859 124.73562402 -175.9375 126.375 C-164.07217921 133.9891096 -150.54778944 137.10955789 -136.58203125 134.31640625 C-124.56150292 130.92021947 -114.65733154 124.31373797 -108.0625 113.5625 C-105.46427969 108.48650667 -104.86820605 104.59221557 -106.62890625 99.00390625 C-117.57271875 73.82822997 -159.90424645 61.15672905 -183 51 C-182.67 50.01 -182.34 49.02 -182 48 C-181.07703125 48.25394531 -180.1540625 48.50789063 -179.203125 48.76953125 C-132.94495786 61.12996434 -81.60983648 60.75541628 -39 37 C-24.62440165 28.45546764 -9.84699883 16.85620462 -1.35546875 2.15234375 C-0.90816406 1.44207031 -0.46085938 0.73179687 0 0 Z " fill="#FFFFFF" transform="translate(202,7)"/>
<path d="M0 0 C9.10093834 8.30805356 13.36363355 19.36028291 14.0546875 31.46875 C14.25476558 40.65011066 14.25476558 40.65011066 11.875 44.3203125 C9.18602533 45.66479983 7.05908351 45.48227014 4.04833984 45.52563477 C2.21666763 45.5555526 2.21666763 45.5555526 0.34799194 45.58607483 C-0.98935823 45.60305906 -2.32670975 45.61993787 -3.6640625 45.63671875 C-5.02884553 45.65728853 -6.39362218 45.67828501 -7.75839233 45.69969177 C-11.35207973 45.75491009 -14.9458246 45.80432037 -18.53961182 45.85253906 C-22.20614746 45.90275587 -25.87259956 45.95844099 -29.5390625 46.01367188 C-36.73430426 46.1212505 -43.92961546 46.22269607 -51.125 46.3203125 C-50.83523138 47.89691118 -50.5382297 49.47218132 -50.23828125 51.046875 C-49.9913855 52.36292725 -49.9913855 52.36292725 -49.73950195 53.70556641 C-48.25232267 60.03361177 -45.67246327 64.75408611 -40.125 68.3203125 C-33.24055281 72.35291747 -25.87277424 72.37801636 -18.125 71.3203125 C-13.15537947 69.85226267 -8.62049907 67.80762995 -4.171875 65.15625 C-1.24137855 63.9594442 0.73714612 63.8709012 3.875 64.3203125 C6.4296875 66.5078125 6.4296875 66.5078125 8.75 69.3203125 C9.53117188 70.2484375 10.31234375 71.1765625 11.1171875 72.1328125 C11.69726562 72.8546875 12.27734375 73.5765625 12.875 74.3203125 C9.47433285 82.05217761 2.16395792 86.201146 -5.3671875 89.3203125 C-19.3537317 94.3919206 -36.48053301 94.32387798 -50.125 88.3203125 C-52.98462146 86.86209494 -55.55512423 85.23883727 -58.125 83.3203125 C-59.135625 82.5984375 -60.14625 81.8765625 -61.1875 81.1328125 C-70.89213644 72.58851303 -75.82720217 60.23321205 -76.92163086 47.578125 C-77.83676859 32.50452184 -75.93107077 18.33088496 -66.03515625 6.41796875 C-49.00103989 -12.28820811 -20.39646265 -16.12220394 0 0 Z M-45.375 15.5703125 C-48.65100531 19.70473631 -51.125 23.92268355 -51.125 29.3203125 C-37.265 29.3203125 -23.405 29.3203125 -9.125 29.3203125 C-10.09723476 20.85248515 -10.09723476 20.85248515 -14.125 14.3203125 C-23.48908386 7.05836992 -37.01853633 6.50049218 -45.375 15.5703125 Z " fill="#FFFFFF" transform="translate(684.125,55.6796875)"/>
<path d="M0 0 C7.83690564 7.0565358 12.45689809 17.45928453 13.12109375 27.90429688 C13.22088723 30.06183186 13.27659647 32.21548701 13.3125 34.375 C13.33920776 35.42905029 13.33920776 35.42905029 13.36645508 36.50439453 C13.35865085 41.46908593 13.35865085 41.46908593 11.85429382 43.69599915 C9.19038198 45.56935021 7.2059976 45.3602799 3.96801758 45.34057617 C2.10642754 45.34023628 2.10642754 45.34023628 0.20722961 45.33988953 C-1.14700684 45.32456968 -2.50123961 45.3089217 -3.85546875 45.29296875 C-5.2412317 45.28737251 -6.62700059 45.28310254 -8.01277161 45.28010559 C-11.65762764 45.26865883 -15.30212423 45.23919358 -18.94683838 45.20599365 C-22.66698342 45.17528885 -26.38718661 45.16159941 -30.10742188 45.14648438 C-37.40511167 45.11432331 -44.70250544 45.06312951 -52 45 C-51.57372794 47.06484978 -51.13348551 49.12681821 -50.6875 51.1875 C-50.44386719 52.33605469 -50.20023437 53.48460937 -49.94921875 54.66796875 C-49.02900835 57.89817232 -47.78495331 60.18507363 -46 63 C-46 63.66 -46 64.32 -46 65 C-45.34 65 -44.68 65 -44 65 C-44 65.66 -44 66.32 -44 67 C-43.278125 67.28875 -42.55625 67.5775 -41.8125 67.875 C-40.11902423 68.55239031 -38.43752317 69.26288599 -36.78515625 70.03515625 C-28.60618517 72.86854455 -19.55258411 72.10986512 -11.81396484 68.49194336 C-10.54871625 67.84466244 -9.29304446 67.17820458 -8.04931641 66.49047852 C-4.17111697 64.35817435 -1.43098506 63.42397194 3 64 C5.625 66.1875 5.625 66.1875 8 69 C9.175625 70.2684375 9.175625 70.2684375 10.375 71.5625 C12 74 12 74 11.7734375 75.97265625 C9.16590515 82.80755166 0.60296587 85.87555421 -5.5234375 88.703125 C-12.9649947 91.47907668 -20.02278039 92.36419045 -27.9375 92.3125 C-28.81631836 92.30831055 -29.69513672 92.30412109 -30.60058594 92.29980469 C-36.82694164 92.19113825 -42.26154815 91.55783706 -48 89 C-48.66515625 88.74476563 -49.3303125 88.48953125 -50.015625 88.2265625 C-61.48420174 83.30500791 -69.47069432 73.14777394 -74.31640625 61.9609375 C-79.16636471 47.79973475 -79.39844807 29.64624766 -73 16 C-66.40065743 3.25240916 -57.19912183 -3.98522048 -43.72265625 -8.81640625 C-28.32506001 -12.91669724 -12.43903704 -9.71294938 0 0 Z M-46.875 15.9375 C-50.18608931 20.709364 -51 23.11083678 -51 29 C-37.47 29 -23.94 29 -10 29 C-10.23636457 20.29743649 -10.23636457 20.29743649 -14.25 14.5 C-15.12398438 13.55640625 -15.12398438 13.55640625 -16.015625 12.59375 C-25.07601736 5.31689944 -39.39713348 7.57352791 -46.875 15.9375 Z " fill="#FFFFFF" transform="translate(419,56)"/>
<path d="M0 0 C8.51438317 7.20563523 11.52094977 16.18159372 13.25 26.9375 C13.61758377 32.32598837 13.60301161 37.68613107 13.54296875 43.08203125 C13.53735673 44.5880236 13.53309425 46.09402152 13.53010559 47.60002136 C13.51878291 51.51762664 13.48942825 55.43488535 13.45599365 59.35235596 C13.42501748 63.36831986 13.41154209 67.38434108 13.39648438 71.40039062 C13.36454294 79.24626824 13.31188219 87.09179094 13.25 94.9375 C5 94.9375 -3.25 94.9375 -11.75 94.9375 C-11.76458252 92.98529541 -11.77916504 91.03309082 -11.79418945 89.02172852 C-11.84601002 82.54360234 -11.91134078 76.06572031 -11.98571491 69.58781528 C-12.03028364 65.66346384 -12.06956865 61.73921299 -12.09643555 57.81469727 C-12.12260435 54.02138972 -12.16310031 50.22847209 -12.21318626 46.43540764 C-12.22976385 44.99432189 -12.24133449 43.55316884 -12.24761391 42.11200142 C-11.99970931 28.69402223 -11.99970931 28.69402223 -18.25 17.4375 C-23.00203279 14.58628033 -27.34527114 14.31518895 -32.75 14.9375 C-38.19299592 16.6373353 -42.40862939 19.25391282 -46.75 22.9375 C-47.41 22.9375 -48.07 22.9375 -48.75 22.9375 C-48.75 46.6975 -48.75 70.4575 -48.75 94.9375 C-57 94.9375 -65.25 94.9375 -73.75 94.9375 C-73.75 62.2675 -73.75 29.5975 -73.75 -4.0625 C-67.48 -4.0625 -61.21 -4.0625 -54.75 -4.0625 C-51.40094547 -0.71344547 -50.85529715 1.43128854 -49.75 5.9375 C-49.32589844 5.55078125 -48.90179688 5.1640625 -48.46484375 4.765625 C-34.90892703 -7.27083732 -15.57612044 -11.00712511 0 0 Z " fill="#FFFFFF" transform="translate(317.75,52.0625)"/>
<path d="M0 0 C6.51056567 5.46422476 10.37137805 12.45933349 12.125 20.75 C12.5281584 26.36954995 12.47535145 31.96684476 12.41796875 37.59765625 C12.41236428 39.22146714 12.40809821 40.84528315 12.40510559 42.46910095 C12.39372373 46.71554903 12.36431504 50.96168279 12.33099365 55.20800781 C12.30014809 59.5520401 12.28656948 63.89612383 12.27148438 68.24023438 C12.23943798 76.74363284 12.18832365 85.24677717 12.125 93.75 C10.19793153 93.76184673 8.27084207 93.77031371 6.34375 93.77734375 C5.27060547 93.78241943 4.19746094 93.78749512 3.09179688 93.79272461 C-0.49160394 93.74112033 -2.7987265 93.67267094 -5.875 91.75 C-7.55399571 88.86191618 -8.77348632 85.89903323 -9.875 82.75 C-10.6175 83.45125 -11.36 84.1525 -12.125 84.875 C-23.38679376 94.30473162 -35.78318553 95.95383983 -49.875 94.75 C-53.3491256 93.94152662 -55.94829179 92.7660372 -58.875 90.75 C-59.51695312 90.32589844 -60.15890625 89.90179688 -60.8203125 89.46484375 C-65.67484786 85.81886426 -68.44170405 81.65082075 -69.875 75.75 C-70.93849516 67.31602099 -70.87439137 59.98199533 -65.8203125 52.89453125 C-54.24259458 40.13114342 -36.28099242 37.17555241 -19.875 35.75 C-17.19837581 35.66927293 -14.55365194 35.6915007 -11.875 35.75 C-12.21784765 29.21225 -12.53386084 23.47766714 -15.875 17.75 C-18.31809577 15.83255407 -18.31809577 15.83255407 -20.875 14.75 C-21.535 14.42 -22.195 14.09 -22.875 13.75 C-31.86302887 12.86648866 -38.86378912 14.86142182 -46.5 19.5 C-49.71117108 21.35496968 -50.82157259 21.74912414 -54.6875 21.8125 C-60.82951205 19.76516265 -63.03239193 15.2321727 -65.875 9.75 C-65.875 7.75 -65.875 7.75 -64.6171875 6.48828125 C-46.3055809 -7.4944309 -20.08352097 -14.34068409 0 0 Z M-44.875 60.5 C-46.38795889 63.9041575 -46.54167862 67.13703201 -45.875 70.75 C-44.08136089 73.5600346 -42.85619065 75.25940468 -39.875 76.75 C-31.82972222 77.39404455 -24.55802423 77.69147342 -17.875 72.75 C-16.82054687 72.04875 -15.76609375 71.3475 -14.6796875 70.625 C-12.83127911 69.06515318 -11.99089977 68.20825076 -11.39355469 65.84643555 C-11.28500215 63.68071093 -11.34923706 61.60036833 -11.5 59.4375 C-11.52707031 58.69693359 -11.55414062 57.95636719 -11.58203125 57.19335938 C-11.65231716 55.37764002 -11.75992911 53.56343199 -11.875 51.75 C-22.836105 51.40422382 -36.40000656 53.08438074 -44.875 60.5 Z " fill="#FFFFFF" transform="translate(847.875,53.25)"/>
<path d="M0 0 C0.721875 0.495 1.44375 0.99 2.1875 1.5 C0.95061031 20.73688969 0.95061031 20.73688969 -1.8125 23.5 C-3.5863117 23.49577664 -5.36044141 23.48462247 -7.13354492 23.43432617 C-15.63896943 23.20274991 -22.85194408 23.22823642 -29.6875 28.875 C-33.51058645 33.5976362 -35.18317294 36.6931599 -35.24487305 42.85083008 C-35.26466721 44.1117598 -35.28446136 45.37268951 -35.30485535 46.67182922 C-35.31162406 48.03772838 -35.31807105 49.40362916 -35.32421875 50.76953125 C-35.34107425 52.17487653 -35.35922567 53.58020682 -35.37861633 54.98551941 C-35.42602851 58.6728751 -35.45589426 62.36016997 -35.48205566 66.04772949 C-35.51190583 69.81514493 -35.55842075 73.58235102 -35.60351562 77.34960938 C-35.68944883 84.73298677 -35.75529658 92.11633388 -35.8125 99.5 C-44.0625 99.5 -52.3125 99.5 -60.8125 99.5 C-60.8125 66.83 -60.8125 34.16 -60.8125 0.5 C-54.5425 0.5 -48.2725 0.5 -41.8125 0.5 C-38.91482078 5.32946537 -37.98343624 8.18575093 -36.8125 13.5 C-36.38839844 12.98050781 -35.96429687 12.46101563 -35.52734375 11.92578125 C-26.96003523 1.73915728 -13.72703975 -6.91266202 0 0 Z " fill="#FFFFFF" transform="translate(772.8125,47.5)"/>
<path d="M0 0 C5.98268537 2.5481808 8.49624957 7.24541232 11 13 C11.8125 16 11.8125 16 12 19 C12.061875 19.66515625 12.12375 20.3303125 12.1875 21.015625 C12.53806262 27.28193187 11.12028844 32.54900831 8 38 C4.84440605 41.51784326 1.60416075 43.80750071 -3.125 44.375 C-8.16085789 43.88765891 -11.32190096 42.48532656 -15 39 C-19.97637058 31.28355376 -21.84629488 24.11852934 -21 15 C-19.79149373 10.10382316 -17.99104815 5.54184968 -14.4375 1.875 C-9.55717398 -0.78699601 -5.440397 -0.84447953 0 0 Z " fill="#FFFFFF" transform="translate(133,0)"/>
<path d="M0 0 C3.42448726 0.54888945 4.45681884 1.95664846 6.49682617 4.65966797 C6.9322876 5.2682666 7.36774902 5.87686523 7.81640625 6.50390625 C8.77101486 7.77948519 9.72678823 9.05419312 10.68359375 10.328125 C11.17956055 10.99763184 11.67552734 11.66713867 12.18652344 12.35693359 C14.85685504 15.90822506 17.65358994 19.35716461 20.44140625 22.81640625 C23.07109375 26.09578125 23.07109375 26.09578125 25.75390625 29.44140625 C26.08390625 19.87140625 26.41390625 10.30140625 26.75390625 0.44140625 C28.40390625 0.44140625 30.05390625 0.44140625 31.75390625 0.44140625 C32.75390625 1.44140625 32.75390625 1.44140625 32.86743164 5.22680664 C32.86727247 6.91423354 32.86157542 8.6016653 32.8515625 10.2890625 C32.85014755 11.17548935 32.8487326 12.0619162 32.84727478 12.97520447 C32.8416584 15.81813879 32.82910316 18.66099556 32.81640625 21.50390625 C32.81139336 23.42643116 32.80683009 25.34895729 32.80273438 27.27148438 C32.79168366 31.99482174 32.77440808 36.71810083 32.75390625 41.44140625 C30.27890625 41.93640625 30.27890625 41.93640625 27.75390625 42.44140625 C11.50109726 23.56219277 11.50109726 23.56219277 4.75390625 13.44140625 C4.7288501 14.28437256 4.70379395 15.12733887 4.67797852 15.99584961 C4.5830247 19.11382299 4.48378177 22.23162128 4.3815918 25.34936523 C4.33819402 26.70054772 4.29652255 28.05178678 4.2565918 29.40307617 C4.19900673 31.34177326 4.13476327 33.28026901 4.0703125 35.21875 C4.03365479 36.38656006 3.99699707 37.55437012 3.95922852 38.75756836 C3.75390625 41.44140625 3.75390625 41.44140625 2.75390625 42.44140625 C0.25390625 42.56640625 0.25390625 42.56640625 -2.24609375 42.44140625 C-4.14232577 40.54517423 -3.37507001 37.77770266 -3.38504028 35.25512695 C-3.38301605 34.38847412 -3.38099182 33.52182129 -3.37890625 32.62890625 C-3.37986298 31.74485107 -3.3808197 30.8607959 -3.38180542 29.94995117 C-3.38248726 28.07698496 -3.38063268 26.20401639 -3.37646484 24.33105469 C-3.37111664 21.45372237 -3.37640968 18.57654617 -3.3828125 15.69921875 C-3.38215172 13.88411424 -3.38087056 12.06900982 -3.37890625 10.25390625 C-3.38093048 9.38725342 -3.38295471 8.52060059 -3.38504028 7.62768555 C-3.35750036 0.65982181 -3.35750036 0.65982181 0 0 Z " fill="#FFFFFF" transform="translate(615.24609375,158.55859375)"/>
<path d="M0 0 C3.73876489 2.2920772 7.01787421 5.03574841 9 9 C9.58237004 13.85799817 10.13493128 18.84473962 7.80078125 23.27734375 C4.75794973 26.90268207 1.67368412 29.62568422 -3.1484375 30.30078125 C-8.18512597 30.32729014 -11.69776916 29.90150452 -16 27 C-20.06850468 22.60161656 -21.3773555 19.17015443 -21.27734375 13.125 C-20.62658377 8.13889538 -17.99386093 4.94537991 -14.4375 1.5625 C-9.53376397 -0.66647092 -5.28634372 -1.14238784 0 0 Z " fill="#FFFFFF" transform="translate(901,118)"/>
<path d="M0 0 C1.91015625 0.82421875 1.91015625 0.82421875 4.66015625 2.32421875 C4.66015625 2.98421875 4.66015625 3.64421875 4.66015625 4.32421875 C5.65015625 4.65421875 6.64015625 4.98421875 7.66015625 5.32421875 C11.52889283 10.71865426 13.45646558 16.31209251 13.08203125 22.9375 C11.73417541 30.56286963 7.32042733 35.73524652 1.09765625 40.13671875 C-5.03965365 42.25688035 -11.44562281 42.19794583 -17.65234375 40.32421875 C-22.58108057 36.65632158 -26.33326811 32.58901393 -28.83984375 26.94921875 C-29.92521135 19.08030366 -29.03037969 12.78955208 -24.33984375 6.32421875 C-17.43500824 -0.63615163 -9.58580851 -2.76852232 0 0 Z M-19.33984375 9.32421875 C-22.89101928 14.29586449 -23.17145999 19.41880903 -22.33984375 25.32421875 C-21.0294882 29.29230109 -19.07496798 31.79424547 -15.65234375 34.26171875 C-10.00396143 36.07346402 -5.44858629 36.31890863 -0.02734375 33.76171875 C4.19799908 29.92943106 6.3344055 26.56375515 7.16015625 20.88671875 C6.33397581 15.00018314 4.34687595 10.93061846 0.03515625 6.82421875 C-6.90055738 3.74167936 -13.61960738 4.02253626 -19.33984375 9.32421875 Z " fill="#FFFFFF" transform="translate(764.33984375,159.67578125)"/>
<path d="M0 0 C5.56932202 2.78934111 8.85930996 6.48867579 11.38671875 12.1640625 C13.29258265 18.45585679 12.88442862 24.34624975 10.359375 30.34765625 C7.66541776 35.37854026 2.78149066 39.34625892 -2.61328125 41.1640625 C-9.03245189 41.94057508 -15.25780399 42.14953395 -20.61328125 38.1640625 C-26.28520628 32.70889894 -29.28211953 28.27046779 -29.92578125 20.2890625 C-29.70736789 14.54479103 -28.49837957 10.18255698 -24.515625 5.91796875 C-17.21870357 -0.73824738 -9.82214963 -3.14191334 0 0 Z M-21.24609375 11.4375 C-23.62091329 16.17356868 -23.24383128 20.99355228 -22.61328125 26.1640625 C-20.50343795 30.61817614 -18.23138867 33.35697699 -13.61328125 35.1640625 C-8.57002741 35.84832307 -4.78251241 35.7380487 -0.17578125 33.4765625 C3.46751189 30.18871259 4.98758928 27.64654338 6.26171875 22.9140625 C6.44318218 17.4701597 5.55079137 12.74776139 1.9765625 8.48046875 C-2.10457369 5.07469789 -6.0141745 4.45594268 -11.24609375 4.7421875 C-15.83161583 5.55940926 -18.576996 7.72119643 -21.24609375 11.4375 Z " fill="#FFFFFF" transform="translate(684.61328125,159.8359375)"/>
<path d="M0 0 C2.19140625 1.1015625 2.19140625 1.1015625 5.44140625 3.1015625 C5.44140625 4.4215625 5.44140625 5.7415625 5.44140625 7.1015625 C3.75390625 8.2890625 3.75390625 8.2890625 1.44140625 9.1015625 C0.76078125 8.6478125 0.08015625 8.1940625 -0.62109375 7.7265625 C-5.13770425 5.22801201 -9.51321288 5.30998515 -14.55859375 6.1015625 C-18.00368588 7.75602374 -19.97908485 10.12693389 -21.93359375 13.4140625 C-23.11474105 18.49299589 -23.14168888 22.5057232 -21.37109375 27.3515625 C-19.21754584 30.6190145 -18.04957013 32.24920769 -14.55859375 34.1015625 C-9.03576248 34.63871458 -3.94220315 34.44746485 1.44140625 33.1015625 C1.44140625 30.1315625 1.44140625 27.1615625 1.44140625 24.1015625 C0.65894531 24.11316406 -0.12351562 24.12476563 -0.9296875 24.13671875 C-1.94160156 24.14574219 -2.95351563 24.15476563 -3.99609375 24.1640625 C-5.00542969 24.17566406 -6.01476562 24.18726563 -7.0546875 24.19921875 C-9.55859375 24.1015625 -9.55859375 24.1015625 -10.55859375 23.1015625 C-10.55859375 21.4515625 -10.55859375 19.8015625 -10.55859375 18.1015625 C-4.61859375 18.1015625 1.32140625 18.1015625 7.44140625 18.1015625 C7.44140625 24.0415625 7.44140625 29.9815625 7.44140625 36.1015625 C-0.06671942 40.51810701 -5.82952326 42.3898529 -14.55859375 41.1015625 C-20.51859939 39.33818893 -24.062908 36.13946256 -27.55859375 31.1015625 C-30.41090279 24.9937912 -30.78198651 18.72118737 -28.61328125 12.3046875 C-25.90820424 6.55427222 -23.14062427 2.77358356 -17.265625 0.03125 C-11.80005732 -1.84581365 -5.46541886 -1.91915472 0 0 Z " fill="#FFFFFF" transform="translate(812.55859375,159.8984375)"/>
<path d="M0 0 C9.9 0 19.8 0 30 0 C30 1.98 30 3.96 30 6 C22.08 6 14.16 6 6 6 C6 9.96 6 13.92 6 18 C13.26 18 20.52 18 28 18 C28 19.65 28 21.3 28 23 C20.74 23 13.48 23 6 23 C6 27.29 6 31.58 6 36 C13.92 36 21.84 36 30 36 C30 37.98 30 39.96 30 42 C20.1 42 10.2 42 0 42 C0 28.14 0 14.28 0 0 Z " fill="#FFFFFF" transform="translate(491,159)"/>
<path d="M0 0 C1.98 0 3.96 0 6 0 C6 5.94 6 11.88 6 18 C12.93 18 19.86 18 27 18 C27 12.06 27 6.12 27 0 C28.98 0 30.96 0 33 0 C33 13.86 33 27.72 33 42 C31.02 42 29.04 42 27 42 C27 36.06 27 30.12 27 24 C20.07 24 13.14 24 6 24 C6 29.94 6 35.88 6 42 C4.02 42 2.04 42 0 42 C0 28.14 0 14.28 0 0 Z " fill="#FFFFFF" transform="translate(570,159)"/>
<path d="M0 0 C3.34326439 1.78401083 5.56035646 3.58968538 6.734375 7.2421875 C6.074375 8.2321875 5.414375 9.2221875 4.734375 10.2421875 C1.7624365 9.11767023 -0.60003187 8.01924959 -3.265625 6.2421875 C-7.61036493 5.59422786 -12.21067026 5.26325237 -16.25 7.1875 C-19.4524711 9.70825696 -21.3500716 12.30530789 -22.265625 16.2421875 C-22.77777478 22.69527473 -22.02859695 26.90359639 -17.765625 32.0546875 C-14.43244409 34.69345572 -10.66513015 34.55736962 -6.61328125 34.55078125 C-4.04548681 34.21325087 -2.61733064 33.50545764 -0.453125 32.1171875 C0.59875 31.4984375 1.650625 30.8796875 2.734375 30.2421875 C5.171875 30.9921875 5.171875 30.9921875 6.734375 32.2421875 C6.734375 33.2321875 6.734375 34.2221875 6.734375 35.2421875 C1.15511753 40.50263026 -4.007002 41.71562353 -11.48046875 41.5546875 C-17.16074037 40.91734987 -21.36195282 38.5556937 -25.140625 34.3046875 C-29.63337555 27.82984113 -30.06859462 21.97077005 -29.265625 14.2421875 C-27.54711856 8.2860004 -24.28126362 4.72242654 -19.265625 1.2421875 C-13.33608379 -1.5880473 -6.27938698 -2.10034668 0 0 Z " fill="#FFFFFF" transform="translate(556.265625,159.7578125)"/>
<path d="M0 0 C3.09765625 -0.5625 3.09765625 -0.5625 7 0 C9.68109955 2.65726414 11.50696616 5.77356201 13.4375 9 C13.97826172 9.85851562 14.51902344 10.71703125 15.07617188 11.6015625 C16.40704115 13.72153126 17.71309954 15.85315694 19 18 C21.98417757 14.31245793 24.85334817 10.55385336 27.6875 6.75 C31.88995215 1.11004785 31.88995215 1.11004785 33 0 C34.99958364 -0.04080783 37.00045254 -0.04254356 39 0 C37.3667828 4.93830764 34.52422151 8.84967319 31.5625 13.0625 C31.07201172 13.76955078 30.58152344 14.47660156 30.07617188 15.20507812 C29.59857422 15.89150391 29.12097656 16.57792969 28.62890625 17.28515625 C28.17185303 17.94499512 27.7147998 18.60483398 27.24389648 19.28466797 C26 21 26 21 24.1953125 22.94921875 C22.22956016 26.32183306 22.42382897 29.91392186 22.3125 33.75 C22.27833984 34.54277344 22.24417969 35.33554688 22.20898438 36.15234375 C22.12680896 38.10107504 22.06171955 40.05051362 22 42 C20.02 42 18.04 42 16 42 C16.04382813 40.86304688 16.08765625 39.72609375 16.1328125 38.5546875 C16.23875223 26.95807011 13.83864441 20.34662005 6.33398438 11.58837891 C0 4.04648609 0 4.04648609 0 0 Z " fill="#FFFFFF" transform="translate(823,159)"/>
<path d="M0 0 C10.56 0 21.12 0 32 0 C32 1.98 32 3.96 32 6 C27.71 6 23.42 6 19 6 C19 17.88 19 29.76 19 42 C17.02 42 15.04 42 13 42 C13 30.12 13 18.24 13 6 C8.71 6 4.42 6 0 6 C0 4.02 0 2.04 0 0 Z " fill="#FFFFFF" transform="translate(452,159)"/>
<path d="M0 0 C1.65 0 3.3 0 5 0 C6 1 6 1 6.11352539 4.32641602 C6.11336629 5.80225556 6.10767314 7.27810069 6.09765625 8.75390625 C6.0962413 9.52935287 6.09482635 10.3047995 6.09336853 11.10374451 C6.08775345 13.59003494 6.07519846 16.0762366 6.0625 18.5625 C6.05748694 20.24413933 6.0529237 21.92578006 6.04882812 23.60742188 C6.03862832 27.73834329 6.01905605 31.86907182 6 36 C13.26 36 20.52 36 28 36 C28 37.98 28 39.96 28 42 C18.76 42 9.52 42 0 42 C0 28.14 0 14.28 0 0 Z " fill="#FFFFFF" transform="translate(705,159)"/>
</svg>
